<svg width="32" height="32" viewBox="0 0 32 32" fill="none" xmlns="http://www.w3.org/2000/svg">
<circle cx="16" cy="16" r="16" fill="white"/>
<path d="M13.8538 23.9537C13.6711 23.9538 13.4906 23.9136 13.3251 23.8361C13.1596 23.7586 13.0132 23.6457 12.8963 23.5053L8.67841 18.4414C8.56177 18.3174 8.47174 18.1708 8.41385 18.0107C8.35596 17.8505 8.33144 17.6803 8.34179 17.5103C8.35214 17.3404 8.39714 17.1743 8.47403 17.0224C8.55093 16.8705 8.65808 16.7359 8.78891 16.627C8.91973 16.518 9.07147 16.437 9.23478 16.3888C9.39809 16.3406 9.56953 16.3264 9.73855 16.347C9.90757 16.3675 10.0706 16.4224 10.2176 16.5083C10.3646 16.5942 10.4925 16.7092 10.5934 16.8464L13.6659 20.5346L20.3115 9.02394C20.477 8.73736 20.7496 8.52829 21.0693 8.44271C21.389 8.35713 21.7296 8.40206 22.0162 8.56761C22.3028 8.73315 22.5118 9.00576 22.5974 9.32546C22.683 9.64515 22.6381 9.98575 22.4725 10.2723L14.9325 23.3283C14.832 23.5022 14.6911 23.6493 14.5217 23.7572C14.3522 23.865 14.1593 23.9303 13.9592 23.9477C13.9238 23.951 13.8882 23.9527 13.8526 23.9525L13.8538 23.9537Z" fill="#6B4EFF"/>
</svg>
